<svg width="0" height="0" style="position:absolute"><symbol viewBox="0 0 15 8" id="arrow-down-v2"><path d="M1.587 1.493l5.976 5.014M7.73 6.507l5.974-5.014" fill="none" fill-rule="evenodd" stroke="#0F1642" stroke-linecap="round" stroke-width="2"/></symbol><symbol viewBox="0 0 496 512" class="bsvg-inline--fa bfa-github bfa-w-16 bfa-lg" id="github"><path fill="currentColor" d="M165.9 397.4c0 2-2.3 3.6-5.2 3.6-3.3.3-5.6-1.3-5.6-3.6 0-2 2.3-3.6 5.2-3.6 3-.3 5.6 1.3 5.6 3.6zm-31.1-4.5c-.7 2 1.3 4.3 4.3 4.9 2.6 1 5.6 0 6.2-2s-1.3-4.3-4.3-5.2c-2.6-.7-5.5.3-6.2 2.3zm44.2-1.7c-2.9.7-4.9 2.6-4.6 4.9.3 2 2.9 3.3 5.9 2.6 2.9-.7 4.9-2.6 4.6-4.6-.3-1.9-3-3.2-5.9-2.9zM244.8 8C106.1 8 0 113.3 0 252c0 110.9 69.8 205.8 169.5 239.2 12.8 2.3 17.3-5.6 17.3-12.1 0-6.2-.3-40.4-.3-61.4 0 0-70 15-84.7-29.8 0 0-11.4-29.1-27.8-36.6 0 0-22.9-15.7 1.6-15.4 0 0 24.9 2 38.6 25.8 21.9 38.6 58.6 27.5 72.9 20.9 2.3-16 8.8-27.1 16-33.7-55.9-6.2-112.3-14.3-112.3-110.5 0-27.5 7.6-41.3 23.6-58.9-2.6-6.5-11.1-33.3 2.6-67.9 20.9-6.5 69 27 69 27 20-5.6 41.5-8.5 62.8-8.5s42.8 2.9 62.8 8.5c0 0 48.1-33.6 69-27 13.7 34.7 5.2 61.4 2.6 67.9 16 17.7 25.8 31.5 25.8 58.9 0 96.5-58.9 104.2-114.8 110.5 9.2 7.9 17 22.9 17 46.4 0 33.7-.3 75.4-.3 83.6 0 6.5 4.6 14.4 17.3 12.1C428.2 457.8 496 362.9 496 252 496 113.3 383.5 8 244.8 8zM97.2 352.9c-1.3 1-1 3.3.7 5.2 1.6 1.6 3.9 2.3 5.2 1 1.3-1 1-3.3-.7-5.2-1.6-1.6-3.9-2.3-5.2-1zm-10.8-8.1c-.7 1.3.3 2.9 2.3 3.9 1.6 1 3.6.7 4.3-.7.7-1.3-.3-2.9-2.3-3.9-2-.6-3.6-.3-4.3.7zm32.4 35.6c-1.6 1.3-1 4.3 1.3 6.2 2.3 2.3 5.2 2.6 6.5 1 1.3-1.3.7-4.3-1.3-6.2-2.2-2.3-5.2-2.6-6.5-1zm-11.4-14.7c-1.6 1-1.6 3.6 0 5.9 1.6 2.3 4.3 3.3 5.6 2.3 1.6-1.3 1.6-3.9 0-6.2-1.4-2.3-4-3.3-5.6-2z" class=""/></symbol><symbol viewBox="0 0 512 512" class="csvg-inline--fa cfa-laravel cfa-w-16 cfa-lg" id="laravel"><path fill="currentColor" d="M504.4,115.83a5.72,5.72,0,0,0-.28-.68,8.52,8.52,0,0,0-.53-1.25,6,6,0,0,0-.54-.71,9.36,9.36,0,0,0-.72-.94c-.23-.22-.52-.4-.77-.6a8.84,8.84,0,0,0-.9-.68L404.4,55.55a8,8,0,0,0-8,0L300.12,111h0a8.07,8.07,0,0,0-.88.69,7.68,7.68,0,0,0-.78.6,8.23,8.23,0,0,0-.72.93c-.17.24-.39.45-.54.71a9.7,9.7,0,0,0-.52,1.25c-.08.23-.21.44-.28.68a8.08,8.08,0,0,0-.28,2.08V223.18l-80.22,46.19V63.44a7.8,7.8,0,0,0-.28-2.09c-.06-.24-.2-.45-.28-.68a8.35,8.35,0,0,0-.52-1.24c-.14-.26-.37-.47-.54-.72a9.36,9.36,0,0,0-.72-.94,9.46,9.46,0,0,0-.78-.6,9.8,9.8,0,0,0-.88-.68h0L115.61,1.07a8,8,0,0,0-8,0L11.34,56.49h0a6.52,6.52,0,0,0-.88.69,7.81,7.81,0,0,0-.79.6,8.15,8.15,0,0,0-.71.93c-.18.25-.4.46-.55.72a7.88,7.88,0,0,0-.51,1.24,6.46,6.46,0,0,0-.29.67,8.18,8.18,0,0,0-.28,2.1v329.7a8,8,0,0,0,4,6.95l192.5,110.84a8.83,8.83,0,0,0,1.33.54c.21.08.41.2.63.26a7.92,7.92,0,0,0,4.1,0c.2-.05.37-.16.55-.22a8.6,8.6,0,0,0,1.4-.58L404.4,400.09a8,8,0,0,0,4-6.95V287.88l92.24-53.11a8,8,0,0,0,4-7V117.92A8.63,8.63,0,0,0,504.4,115.83ZM111.6,17.28h0l80.19,46.15-80.2,46.18L31.41,63.44Zm88.25,60V278.6l-46.53,26.79-33.69,19.4V123.5l46.53-26.79Zm0,412.78L23.37,388.5V77.32L57.06,96.7l46.52,26.8V338.68a6.94,6.94,0,0,0,.12.9,8,8,0,0,0,.16,1.18h0a5.92,5.92,0,0,0,.38.9,6.38,6.38,0,0,0,.42,1v0a8.54,8.54,0,0,0,.6.78,7.62,7.62,0,0,0,.66.84l0,0c.23.22.52.38.77.58a8.93,8.93,0,0,0,.86.66l0,0,0,0,92.19,52.18Zm8-106.17-80.06-45.32,84.09-48.41,92.26-53.11,80.13,46.13-58.8,33.56Zm184.52,4.57L215.88,490.11V397.8L346.6,323.2l45.77-26.15Zm0-119.13L358.68,250l-46.53-26.79V131.79l33.69,19.4L392.37,178Zm8-105.28-80.2-46.17,80.2-46.16,80.18,46.15Zm8,105.28V178L455,151.19l33.68-19.4v91.39h0Z" class=""/></symbol><symbol viewBox="0 0 240.823 240.823" xml:space="preserve" enable-background="new 0 0 240.823 240.823" id="next-icon"><path d="M183.189,111.816L74.892,3.555c-4.752-4.74-12.451-4.74-17.215,0c-4.752,4.74-4.752,12.439,0,17.179
		l99.707,99.671l-99.695,99.671c-4.752,4.74-4.752,12.439,0,17.191c4.752,4.74,12.463,4.74,17.215,0l108.297-108.261
		C187.881,124.315,187.881,116.495,183.189,111.816z"/><g/><g/><g/><g/><g/><g/><g/><g/><g/><g/><g/><g/><g/><g/><g/><g/><g/><g/><g/><g/><g/></symbol><symbol viewBox="0 0 24 24" fill="none" id="plus-unsafe"><path fill-rule="evenodd" clip-rule="evenodd" d="M12 0C11.4477 0 11 0.447716 11 1V11H1C0.447715 11 0 11.4477 0 12C0 12.5523 0.447716 13 1 13H11V23C11 23.5523 11.4477 24 12 24C12.5523 24 13 23.5523 13 23V13H23C23.5523 13 24 12.5523 24 12C24 11.4477 23.5523 11 23 11H13V1C13 0.447715 12.5523 0 12 0Z" fill="#E8E8E8"/></symbol><symbol viewBox="0 0 791.966 791.967" xml:space="preserve" enable-background="new 0 0 791.966 791.967" id="prev-icon"><path d="M245.454,396.017L617.077,56.579c12.973-12.94,12.973-33.934,0-46.874c-12.973-12.94-34.033-12.94-47.006,0
				L174.615,370.896c-6.932,6.899-9.87,16.076-9.408,25.087c-0.462,9.045,2.476,18.188,9.408,25.088l395.456,361.19
				c12.973,12.94,34.033,12.94,47.006,0c12.973-12.939,12.973-33.934,0-46.873L245.454,396.017z"/><g/><g/><g/><g/><g/><g/><g/><g/><g/><g/><g/><g/><g/><g/><g/></symbol><symbol viewBox="0 0 512 512" class="gsvg-inline--fa gfa-react gfa-w-16 gfa-fw gfa-lg" id="react"><path fill="currentColor" d="M418.2 177.2c-5.4-1.8-10.8-3.5-16.2-5.1.9-3.7 1.7-7.4 2.5-11.1 12.3-59.6 4.2-107.5-23.1-123.3-26.3-15.1-69.2.6-112.6 38.4-4.3 3.7-8.5 7.6-12.5 11.5-2.7-2.6-5.5-5.2-8.3-7.7-45.5-40.4-91.1-57.4-118.4-41.5-26.2 15.2-34 60.3-23 116.7 1.1 5.6 2.3 11.1 3.7 16.7-6.4 1.8-12.7 3.8-18.6 5.9C38.3 196.2 0 225.4 0 255.6c0 31.2 40.8 62.5 96.3 81.5 4.5 1.5 9 3 13.6 4.3-1.5 6-2.8 11.9-4 18-10.5 55.5-2.3 99.5 23.9 114.6 27 15.6 72.4-.4 116.6-39.1 3.5-3.1 7-6.3 10.5-9.7 4.4 4.3 9 8.4 13.6 12.4 42.8 36.8 85.1 51.7 111.2 36.6 27-15.6 35.8-62.9 24.4-120.5-.9-4.4-1.9-8.9-3-13.5 3.2-.9 6.3-1.9 9.4-2.9 57.7-19.1 99.5-50 99.5-81.7 0-30.3-39.4-59.7-93.8-78.4zM282.9 92.3c37.2-32.4 71.9-45.1 87.7-36 16.9 9.7 23.4 48.9 12.8 100.4-.7 3.4-1.4 6.7-2.3 10-22.2-5-44.7-8.6-67.3-10.6-13-18.6-27.2-36.4-42.6-53.1 3.9-3.7 7.7-7.2 11.7-10.7zM167.2 307.5c5.1 8.7 10.3 17.4 15.8 25.9-15.6-1.7-31.1-4.2-46.4-7.5 4.4-14.4 9.9-29.3 16.3-44.5 4.6 8.8 9.3 17.5 14.3 26.1zm-30.3-120.3c14.4-3.2 29.7-5.8 45.6-7.8-5.3 8.3-10.5 16.8-15.4 25.4-4.9 8.5-9.7 17.2-14.2 26-6.3-14.9-11.6-29.5-16-43.6zm27.4 68.9c6.6-13.8 13.8-27.3 21.4-40.6s15.8-26.2 24.4-38.9c15-1.1 30.3-1.7 45.9-1.7s31 .6 45.9 1.7c8.5 12.6 16.6 25.5 24.3 38.7s14.9 26.7 21.7 40.4c-6.7 13.8-13.9 27.4-21.6 40.8-7.6 13.3-15.7 26.2-24.2 39-14.9 1.1-30.4 1.6-46.1 1.6s-30.9-.5-45.6-1.4c-8.7-12.7-16.9-25.7-24.6-39s-14.8-26.8-21.5-40.6zm180.6 51.2c5.1-8.8 9.9-17.7 14.6-26.7 6.4 14.5 12 29.2 16.9 44.3-15.5 3.5-31.2 6.2-47 8 5.4-8.4 10.5-17 15.5-25.6zm14.4-76.5c-4.7-8.8-9.5-17.6-14.5-26.2-4.9-8.5-10-16.9-15.3-25.2 16.1 2 31.5 4.7 45.9 8-4.6 14.8-10 29.2-16.1 43.4zM256.2 118.3c10.5 11.4 20.4 23.4 29.6 35.8-19.8-.9-39.7-.9-59.5 0 9.8-12.9 19.9-24.9 29.9-35.8zM140.2 57c16.8-9.8 54.1 4.2 93.4 39 2.5 2.2 5 4.6 7.6 7-15.5 16.7-29.8 34.5-42.9 53.1-22.6 2-45 5.5-67.2 10.4-1.3-5.1-2.4-10.3-3.5-15.5-9.4-48.4-3.2-84.9 12.6-94zm-24.5 263.6c-4.2-1.2-8.3-2.5-12.4-3.9-21.3-6.7-45.5-17.3-63-31.2-10.1-7-16.9-17.8-18.8-29.9 0-18.3 31.6-41.7 77.2-57.6 5.7-2 11.5-3.8 17.3-5.5 6.8 21.7 15 43 24.5 63.6-9.6 20.9-17.9 42.5-24.8 64.5zm116.6 98c-16.5 15.1-35.6 27.1-56.4 35.3-11.1 5.3-23.9 5.8-35.3 1.3-15.9-9.2-22.5-44.5-13.5-92 1.1-5.6 2.3-11.2 3.7-16.7 22.4 4.8 45 8.1 67.9 9.8 13.2 18.7 27.7 36.6 43.2 53.4-3.2 3.1-6.4 6.1-9.6 8.9zm24.5-24.3c-10.2-11-20.4-23.2-30.3-36.3 9.6.4 19.5.6 29.5.6 10.3 0 20.4-.2 30.4-.7-9.2 12.7-19.1 24.8-29.6 36.4zm130.7 30c-.9 12.2-6.9 23.6-16.5 31.3-15.9 9.2-49.8-2.8-86.4-34.2-4.2-3.6-8.4-7.5-12.7-11.5 15.3-16.9 29.4-34.8 42.2-53.6 22.9-1.9 45.7-5.4 68.2-10.5 1 4.1 1.9 8.2 2.7 12.2 4.9 21.6 5.7 44.1 2.5 66.3zm18.2-107.5c-2.8.9-5.6 1.8-8.5 2.6-7-21.8-15.6-43.1-25.5-63.8 9.6-20.4 17.7-41.4 24.5-62.9 5.2 1.5 10.2 3.1 15 4.7 46.6 16 79.3 39.8 79.3 58 0 19.6-34.9 44.9-84.8 61.4zm-149.7-15c25.3 0 45.8-20.5 45.8-45.8s-20.5-45.8-45.8-45.8c-25.3 0-45.8 20.5-45.8 45.8s20.5 45.8 45.8 45.8z" class=""/></symbol><symbol viewBox="0 0 24 24" id="remove-icon"><path d="M 4.9902344 3.9902344 A 1.0001 1.0001 0 0 0 4.2929688 5.7070312 L 10.585938 12 L 4.2929688 18.292969 A 1.0001 1.0001 0 1 0 5.7070312 19.707031 L 12 13.414062 L 18.292969 19.707031 A 1.0001 1.0001 0 1 0 19.707031 18.292969 L 13.414062 12 L 19.707031 5.7070312 A 1.0001 1.0001 0 0 0 18.980469 3.9902344 A 1.0001 1.0001 0 0 0 18.292969 4.2929688 L 12 10.585938 L 5.7070312 4.2929688 A 1.0001 1.0001 0 0 0 4.9902344 3.9902344 z" fill="currentColor"/></symbol><symbol viewBox="0 0 576 512" class="isvg-inline--fa ifa-eye ifa-w-18 ifa-lg" id="show"><path fill="currentColor" d="M572.52 241.4C518.29 135.59 410.93 64 288 64S57.68 135.64 3.48 241.41a32.35 32.35 0 0 0 0 29.19C57.71 376.41 165.07 448 288 448s230.32-71.64 284.52-177.41a32.35 32.35 0 0 0 0-29.19zM288 400a144 144 0 1 1 144-144 143.93 143.93 0 0 1-144 144zm0-240a95.31 95.31 0 0 0-25.31 3.79 47.85 47.85 0 0 1-66.9 66.9A95.78 95.78 0 1 0 288 160z" class=""/></symbol><symbol viewBox="0 0 512 512" class="jsvg-inline--fa jfa-upload jfa-w-16 jfa-7x" id="upload"><path fill="currentColor" d="M296 384h-80c-13.3 0-24-10.7-24-24V192h-87.7c-17.8 0-26.7-21.5-14.1-34.1L242.3 5.7c7.5-7.5 19.8-7.5 27.3 0l152.2 152.2c12.6 12.6 3.7 34.1-14.1 34.1H320v168c0 13.3-10.7 24-24 24zm216-8v112c0 13.3-10.7 24-24 24H24c-13.3 0-24-10.7-24-24V376c0-13.3 10.7-24 24-24h136v8c0 30.9 25.1 56 56 56h80c30.9 0 56-25.1 56-56v-8h136c13.3 0 24 10.7 24 24zm-124 88c0-11-9-20-20-20s-20 9-20 20 9 20 20 20 20-9 20-20zm64 0c0-11-9-20-20-20s-20 9-20 20 9 20 20 20 20-9 20-20z" class=""/></symbol><symbol viewBox="0 0 448 512" class="ksvg-inline--fa kfa-user kfa-w-14 kfa-7x" id="user"><path fill="currentColor" d="M224 256c70.7 0 128-57.3 128-128S294.7 0 224 0 96 57.3 96 128s57.3 128 128 128zm89.6 32h-16.7c-22.2 10.2-46.9 16-72.9 16s-50.6-5.8-72.9-16h-16.7C60.2 288 0 348.2 0 422.4V464c0 26.5 21.5 48 48 48h352c26.5 0 48-21.5 48-48v-41.6c0-74.2-60.2-134.4-134.4-134.4z" class=""/></symbol></svg>